# File created by Blade
# Date/Time:  Fri Jan 16 19:41:12 2015
# Frame Rate: 120.000 fps
#------------------------------------------------------
:FULLY-SPECIFIED
:DEGREES
819
root 18.650721 35.456096 -20.723647 10.454039 4.664383 -0.208142
Spine -28.690593 -4.522916 4.947428
Head 31.406397 2.071076 -5.203839
LeftShoulder -31.166033 -53.148550 56.848119
LeftArm 68.896726 -34.426771 -32.456749
LeftForeArm -20.758708 -0.000000 151.502452
LeftHand 4.717863 -0.000000 10.222411
LeftHandThumb1 -26.253704 0.000000 33.147579
RightShoulder -0.877970 -39.930617 -6.741132
RightArm -15.056135 -61.371229 88.145532
RightForeArm -7.444885 -0.000000 122.649463
RightHand 8.497647 -0.000000 42.393608
RightHandThumb1 -24.326973 -0.000000 -32.862282
LeftUpLeg 0.746551 3.066332 0.901411
LeftLeg -6.741643 -0.000000 0.000000
LeftFoot -22.073424 27.847127 -16.146059
LeftToeBase 23.490970 -0.000000 -0.000000
RightUpLeg 1.067563 -10.238467 -1.542775
RightLeg -4.012802 -0.000000 0.000000
RightFoot -23.884894 -23.223594 21.592304
RightToeBase 22.316710 -0.000000 -0.000000
820
root 18.653760 35.455028 -20.714284 10.390911 4.742277 -0.155986
Spine -28.587354 -4.707860 4.989468
Head 31.437771 2.256691 -5.348561
LeftShoulder -31.141232 -53.043740 56.710926
LeftArm 68.875664 -34.675821 -32.484413
LeftForeArm -20.830015 -0.000000 151.495112
LeftHand 4.680314 -0.000000 10.250793
LeftHandThumb1 -26.253704 0.000000 33.147579
RightShoulder -0.991774 -40.176146 -6.851576
RightArm -14.997454 -61.360587 87.713925
RightForeArm -8.293237 -0.000000 122.016976
RightHand 8.558487 -0.000000 42.505121
RightHandThumb1 -24.326973 -0.000000 -32.862282
LeftUpLeg 0.806418 3.001901 0.867074
LeftLeg -6.716563 -0.000000 0.000000
LeftFoot -22.063591 27.805377 -16.182039
LeftToeBase 23.404006 -0.000000 -0.000000
RightUpLeg 1.165216 -10.257416 -1.601176
RightLeg -4.010408 -0.000000 0.000000
RightFoot -23.924940 -23.280394 21.564379
RightToeBase 22.272783 -0.000000 -0.000000
821
root 18.656614 35.453764 -20.703089 10.310244 4.824706 -0.110143
Spine -28.458213 -4.897497 5.036382
Head 31.476638 2.471514 -5.491182
LeftShoulder -31.286943 -52.940744 56.759902
LeftArm 68.781562 -34.787859 -32.564867
LeftForeArm -20.793304 -0.000000 151.539378
LeftHand 4.575436 -0.000000 10.245140
LeftHandThumb1 -26.253704 0.000000 33.147579
RightShoulder -1.085614 -40.162121 -6.826248
RightArm -15.522208 -60.427924 87.303829
RightForeArm -7.746646 -0.000000 121.228214
RightHand 10.783672 0.000000 41.273501
RightHandThumb1 -24.326973 -0.000000 -32.862282
LeftUpLeg 0.889956 2.932659 0.838453
LeftLeg -6.700991 -0.000000 0.000000
LeftFoot -22.054462 27.778613 -16.193377
LeftToeBase 23.375221 -0.000000 -0.000000
RightUpLeg 1.289969 -10.296916 -1.653795
RightLeg -4.023013 -0.000000 0.000000
RightFoot -23.985455 -23.364887 21.582856
RightToeBase 22.285838 -0.000000 -0.000000
822
root 18.659252 35.453268 -20.693332 10.223013 4.893475 -0.050093
Spine -28.308340 -5.087095 5.052878
Head 31.530140 2.658074 -5.745456
LeftShoulder -31.494445 -52.726607 56.849850
LeftArm 68.736244 -34.881529 -32.721493
LeftForeArm -20.663520 -0.000000 151.615460
LeftHand 4.456229 -0.000000 10.189030
LeftHandThumb1 -26.253704 0.000000 33.147579
RightShoulder -1.245781 -40.286731 -6.992169
RightArm -15.803423 -61.331437 87.512242
RightForeArm -10.563273 -0.000000 120.551103
RightHand 8.832570 0.000000 42.555678
RightHandThumb1 -24.326973 -0.000000 -32.862282
LeftUpLeg 0.978482 2.886041 0.798208
LeftLeg -6.680958 -0.000000 0.000000
LeftFoot -22.035838 27.716833 -16.226545
LeftToeBase 23.372903 -0.000000 -0.000000
RightUpLeg 1.413065 -10.313076 -1.725397
RightLeg -4.024513 -0.000000 0.000000
RightFoot -24.030789 -23.415854 21.589245
RightToeBase 22.287158 -0.000000 -0.000000
823
root 18.661726 35.453192 -20.685725 10.143470 4.979119 -0.005079
Spine -28.187118 -5.259885 5.112821
Head 31.602544 2.885550 -5.904848
LeftShoulder -31.627407 -52.562828 56.839586
LeftArm 68.676264 -34.994205 -32.875898
LeftForeArm -20.574376 -0.000000 151.678470
LeftHand 4.445422 -0.000000 10.081352
LeftHandThumb1 -26.253704 0.000000 33.147579
RightShoulder -1.363423 -40.571716 -7.238344
RightArm -15.717688 -62.027718 87.401915
RightForeArm -13.173500 -0.000000 119.831748
RightHand 8.218975 -0.000000 42.849076
RightHandThumb1 -24.326973 -0.000000 -32.862282
LeftUpLeg 1.046469 2.817621 0.771326
LeftLeg -6.647619 -0.000000 0.000000
LeftFoot -22.034666 27.672135 -16.276670
LeftToeBase 23.336475 -0.000000 -0.000000
RightUpLeg 1.517751 -10.333725 -1.775617
RightLeg -4.009121 -0.000000 0.000000
RightFoot -24.095793 -23.468250 21.616577
RightToeBase 22.246263 -0.000000 -0.000000
824
root 18.665752 35.453044 -20.676360 10.060670 5.051943 0.050179
Spine -28.051874 -5.415284 5.147555
Head 31.702298 3.124254 -6.122329
LeftShoulder -31.823071 -52.445896 56.906317
LeftArm 68.609616 -35.072724 -33.058111
LeftForeArm -20.588237 -0.000000 151.744078
LeftHand 4.325480 -0.000000 10.032630
LeftHandThumb1 -26.253704 0.000000 33.147579
RightShoulder -1.420558 -40.609227 -7.388204
RightArm -16.177107 -61.809690 87.342226
RightForeArm -14.339678 -0.000000 118.968259
RightHand 9.168843 -0.000000 41.403675
RightHandThumb1 -24.326973 -0.000000 -32.862282
LeftUpLeg 1.126611 2.757143 0.731495
LeftLeg -6.619316 -0.000000 0.000000
LeftFoot -22.017440 27.634245 -16.308738
LeftToeBase 23.285727 -0.000000 -0.000000
RightUpLeg 1.631448 -10.331512 -1.841167
RightLeg -3.999414 -0.000000 0.000000
RightFoot -24.156357 -23.538753 21.627845
RightToeBase 22.244903 -0.000000 -0.000000
825
root 18.670232 35.453376 -20.666892 9.972268 5.105050 0.099830
Spine -27.909108 -5.550784 5.168225
Head 31.806605 3.319039 -6.332243
LeftShoulder -32.022908 -52.364192 56.985741
LeftArm 68.587892 -35.126020 -33.280805
LeftForeArm -20.692206 -0.000000 151.761672
LeftHand 4.410055 0.000000 9.833927
LeftHandThumb1 -26.253704 0.000000 33.147579
RightShoulder -1.542460 -40.783555 -7.541905
RightArm -16.459847 -62.256415 87.394662
RightForeArm -17.832135 -0.000000 118.249890
RightHand 9.089359 -0.000000 41.738190
RightHandThumb1 -24.326973 -0.000000 -32.862282
LeftUpLeg 1.219668 2.728521 0.692381
LeftLeg -6.604253 -0.000000 0.000000
LeftFoot -22.002750 27.584660 -16.351560
LeftToeBase 23.249446 -0.000000 -0.000000
RightUpLeg 1.735056 -10.332030 -1.906146
RightLeg -3.967914 -0.000000 0.000000
RightFoot -24.221520 -23.584329 21.659196
RightToeBase 22.243984 -0.000000 -0.000000
826
root 18.673214 35.453882 -20.658818 9.888155 5.169757 0.151071
Spine -27.765513 -5.708935 5.182261
Head 31.922696 3.500842 -6.540281
LeftShoulder -32.207227 -52.287603 57.039473
LeftArm 68.635542 -35.228770 -33.546955
LeftForeArm -21.110435 0.000000 151.651825
LeftHand 4.723475 -0.000000 9.422953
LeftHandThumb1 -26.253704 0.000000 33.147579
RightShoulder -1.654188 -40.979050 -7.672600
RightArm -16.746628 -62.755242 87.453167
RightForeArm -21.470555 -0.000000 117.536413
RightHand 8.964403 -0.000000 42.044184
RightHandThumb1 -24.326973 -0.000000 -32.862282
LeftUpLeg 1.299889 2.679634 0.655474
LeftLeg -6.579405 -0.000000 0.000000
LeftFoot -21.976337 27.537760 -16.396404
LeftToeBase 23.163052 -0.000000 -0.000000
RightUpLeg 1.835710 -10.347318 -1.967610
RightLeg -3.940229 -0.000000 0.000000
RightFoot -24.288987 -23.634661 21.685204
RightToeBase 22.270498 -0.000000 -0.000000
827
root 18.676305 35.454321 -20.650956 9.834303 5.220679 0.204749
Spine -27.668631 -5.869272 5.205016
Head 32.051494 3.742281 -6.727585
LeftShoulder -32.401019 -52.184145 57.156269
LeftArm 68.568453 -35.295534 -33.761804
LeftForeArm -21.135099 -0.000000 151.690623
LeftHand 4.701014 -0.000000 9.327874
LeftHandThumb1 -26.253704 0.000000 33.147579
RightShoulder -1.734418 -41.206366 -7.832104
RightArm -17.019741 -63.221289 87.503435
RightForeArm -25.194510 -0.000000 116.868567
RightHand 8.881362 -0.000000 42.392445
RightHandThumb1 -24.326973 -0.000000 -32.862282
LeftUpLeg 1.352930 2.653483 0.610978
LeftLeg -6.557686 -0.000000 0.000000
LeftFoot -21.964255 27.495962 -16.429155
LeftToeBase 23.185156 -0.000000 -0.000000
RightUpLeg 1.901258 -10.360078 -2.026867
RightLeg -3.908023 -0.000000 0.000000
RightFoot -24.347339 -23.678585 21.684799
RightToeBase 22.258153 -0.000000 -0.000000
828
root 18.679343 35.455104 -20.642444 9.778576 5.280443 0.254600
Spine -27.564656 -6.026123 5.228588
Head 32.184501 3.981630 -6.938596
LeftShoulder -32.587399 -52.071987 57.265817
LeftArm 68.479497 -35.345996 -33.902084
LeftForeArm -20.922056 0.000000 151.778615
LeftHand 4.562254 -0.000000 9.439468
LeftHandThumb1 -26.253704 0.000000 33.147579
RightShoulder -1.861108 -41.453675 -7.929679
RightArm -17.273276 -63.750567 87.567179
RightForeArm -29.089895 0.000000 116.290086
RightHand 8.778170 0.000000 42.882033
RightHandThumb1 -24.326973 -0.000000 -32.862282
LeftUpLeg 1.403776 2.623631 0.573465
LeftLeg -6.527523 -0.000000 0.000000
LeftFoot -21.943827 27.432628 -16.478979
LeftToeBase 23.102650 -0.000000 -0.000000
RightUpLeg 1.971591 -10.380876 -2.085651
RightLeg -3.875951 -0.000000 0.000000
RightFoot -24.383373 -23.699173 21.680288
RightToeBase 22.217618 -0.000000 -0.000000
